<?xml version="1.0" encoding="UTF-8"?>
<svg version="1.1" xmlns="http://www.w3.org/2000/svg" width="512" height="512">
<path d="M0 0 C0.78342773 0.16628906 1.56685547 0.33257812 2.37402344 0.50390625 C14.85518176 3.24701797 26.44513556 7.58133766 38 13 C38.71897461 13.33483398 39.43794922 13.66966797 40.17871094 14.01464844 C49.06112993 18.22941133 57.12673024 23.26078377 65.0625 29.0625 C66.22265625 29.91062256 66.22265625 29.91062256 67.40625 30.77587891 C72.05303319 34.27405299 76.17055488 38.04303366 80.21777344 42.21704102 C82.08329575 44.14970176 82.08329575 44.14970176 84.73046875 46.1796875 C87.32717495 48.26241571 89.23847033 50.52393172 91.3125 53.125 C92.09238281 54.10210937 92.87226563 55.07921875 93.67578125 56.0859375 C94.44277344 57.04757813 95.20976562 58.00921875 96 59 C96.67417969 59.79664063 97.34835937 60.59328125 98.04296875 61.4140625 C113.5899855 79.9711803 123.51329156 103.21688628 129.1875 126.5625 C129.36289307 127.2750293 129.53828613 127.98755859 129.71899414 128.72167969 C130.79040358 133.33227471 131.08928202 137.63122745 131.25 142.375 C131.81768892 146.88038573 132.79867343 149.17091168 136.2578125 151.99609375 C139.69024842 154.46234068 143.29035701 156.62358363 146.9375 158.75488281 C149.91083085 160.54986237 152.61318015 162.58017392 155.375 164.6875 C156.3340625 165.41710937 157.293125 166.14671875 158.28125 166.8984375 C162.56769255 170.21180832 166.81783293 173.5555038 171 177 C171.51788086 177.42619629 172.03576172 177.85239258 172.56933594 178.29150391 C190.54189418 193.16371716 206.2984718 209.04078579 217 230 C217.45632813 230.88945312 217.91265625 231.77890625 218.3828125 232.6953125 C222.25615993 241.55254753 222.86866359 252.94346188 220.01171875 262.203125 C218.83435077 264.6380532 217.55755429 266.79308634 216 269 C215.443125 269.886875 214.88625 270.77375 214.3125 271.6875 C194.85803018 291.14196982 164.06651927 292.21861654 138.25 292.25 C137.37359863 292.25233643 136.49719727 292.25467285 135.59423828 292.25708008 C121.22572165 292.27145644 107.200858 291.37931276 92.9375 289.65625 C84.26666462 288.18485173 84.26666462 288.18485173 76.33984375 290.8359375 C75.54707031 291.67382812 74.75429688 292.51171875 73.9375 293.375 C52.71243955 314.01934745 23.52143659 325.14720008 -5 331 C-6.19367188 331.24878906 -7.38734375 331.49757813 -8.6171875 331.75390625 C-28.52936856 335.10383789 -50.29373619 334.25809529 -70 330 C-70.78342773 329.83371094 -71.56685547 329.66742188 -72.37402344 329.49609375 C-100.57784597 323.29745143 -126.82716713 309.59276084 -147.9296875 289.91796875 C-149.63581654 288.33738505 -151.3628299 286.87526362 -153.1875 285.4375 C-166.57425708 273.83564386 -177.03946809 257.67490273 -185 242 C-185.31662598 241.38447266 -185.63325195 240.76894531 -185.95947266 240.13476562 C-193.51239554 225.28922947 -198.19344275 209.86950102 -201.23828125 193.5234375 C-201.37999756 192.76458252 -201.52171387 192.00572754 -201.66772461 191.22387695 C-202 189 -202 189 -202.06860352 186.82885742 C-202.1795316 183.94574484 -202.38699687 181.66939985 -204.38256836 179.49023438 C-206.29494301 178.0384439 -208.25103162 176.79313984 -210.3125 175.5625 C-211.78132926 174.62194538 -213.24876612 173.67921297 -214.71484375 172.734375 C-215.44300293 172.27482422 -216.17116211 171.81527344 -216.92138672 171.34179688 C-244.36499935 153.62625835 -272.09589008 129.4926034 -287 100 C-287.45503906 99.11183594 -287.91007812 98.22367187 -288.37890625 97.30859375 C-292.25880939 88.45376254 -292.86856333 77.05621315 -290.01171875 67.796875 C-288.83435077 65.3619468 -287.55755429 63.20691366 -286 61 C-285.443125 60.113125 -284.88625 59.22625 -284.3125 58.3125 C-264.85803018 38.85803018 -234.06651927 37.78138346 -208.25 37.75 C-207.37359863 37.74766357 -206.49719727 37.74532715 -205.59423828 37.74291992 C-191.22572165 37.72854356 -177.200858 38.62068724 -162.9375 40.34375 C-154.26666462 41.81514827 -154.26666462 41.81514827 -146.33984375 39.1640625 C-145.54707031 38.32617188 -144.75429687 37.48828125 -143.9375 36.625 C-138.05465331 30.86437312 -131.71203614 26.4791892 -124.75341797 22.10791016 C-123.23882038 21.15090043 -121.74429128 20.16226545 -120.25390625 19.16796875 C-103.70888081 8.67060491 -84.11840202 2.62669534 -65 -1 C-63.22689453 -1.36544922 -63.22689453 -1.36544922 -61.41796875 -1.73828125 C-41.51844507 -5.14367122 -19.6992299 -4.25657541 0 0 Z M-232.9375 80.5625 C-236.32259805 84.56307043 -236.41189544 87.89249652 -236 93 C-233.86584987 100.0452667 -229.65646377 105.42282635 -225 111 C-224.195625 112.03125 -223.39125 113.0625 -222.5625 114.125 C-216.20989421 121.25231381 -208.39580722 127.00450186 -201 133 C-199.53976458 130.26369952 -198.54594864 127.68420001 -197.7734375 124.68359375 C-193.19815263 107.49111281 -187.28352889 91.84117222 -177.6875 76.80859375 C-175.82832613 74.26036785 -175.82832613 74.26036785 -176 72 C-193.6176129 68.9700638 -218.72500523 68.16436626 -232.9375 80.5625 Z M131 189 C130.78085937 190.23492187 130.56171875 191.46984375 130.3359375 192.7421875 C126.78963355 212.00149335 120.63925201 228.65456775 111.82275391 246.13085938 C110.86570839 247.96471715 110.86570839 247.96471715 111 250 C115.53131317 252.26565658 121.77741822 251.23032609 126.75 251.25 C128.00683594 251.270625 129.26367188 251.29125 130.55859375 251.3125 C143.06731438 251.36392331 156.01086688 250.27382744 166 242 C169.11503252 237.69392563 169.76035303 234.23798754 169 229 C163.29309971 213.01603944 147.20637711 197.95619427 133 189 C132.34 189 131.68 189 131 189 Z " fill="#D25726" transform="translate(291,91)"/>
<path d="M0 0 C0.87606903 -0.00200409 1.75213806 -0.00400818 2.65475464 -0.006073 C21.36979929 -0.01650419 39.7323273 1.48175575 58.25 4.25 C56.68150563 8.09994073 54.18666989 10.35967641 51.25 13.25 C49.61075719 14.96567053 47.98598493 16.6952687 46.375 18.4375 C45.57320312 19.29730469 44.77140625 20.15710938 43.9453125 21.04296875 C42.22272315 22.91136218 41.09341183 24.55176888 39.9128418 26.8269043 C38.25610167 29.83748801 36.84002956 31.97655965 34.25 34.25 C29.76722742 35.27451054 25.5054969 35.14175922 20.95751953 34.83190918 C17.36201238 34.5898488 13.76196714 34.51537612 10.16015625 34.41796875 C9.46246124 34.39461456 8.76476624 34.37126038 8.04592896 34.34719849 C-3.381024 34.00877996 -15.20794139 35.71441195 -24.1875 43.3125 C-27.20500614 47.05420761 -27.12421156 50.60977661 -26.75 55.25 C-24.61420795 62.30068702 -20.39057233 67.65498372 -15.75 73.25 C-15.110625 74.11625 -14.47125 74.9825 -13.8125 75.875 C-10.77105645 79.37726832 -7.30161274 82.2764182 -3.75 85.25 C-2.89921875 85.96542969 -2.0484375 86.68085938 -1.171875 87.41796875 C27.25424975 111.0116523 61.00814711 129.34838256 94.25 145.25 C95.61705078 145.90669678 95.61705078 145.90669678 97.01171875 146.57666016 C113.79890785 154.59835223 130.84269976 161.691136 148.25 168.25 C150.06806152 168.93642578 150.06806152 168.93642578 151.92285156 169.63671875 C177.34809575 179.1937729 203.00064849 188.21476379 229.25 195.25 C230.28157227 195.5294043 231.31314453 195.80880859 232.37597656 196.09667969 C252.87296594 201.6264647 273.37553284 206.32941803 294.375 209.5 C295.45265625 209.66330811 296.5303125 209.82661621 297.640625 209.99487305 C310.31263696 211.82114504 322.95567319 212.44514758 335.75 212.5 C336.95269531 212.520625 338.15539062 212.54125 339.39453125 212.5625 C350.83236158 212.61164213 363.97439673 211.72554327 373.25 204.25 C376.34142006 199.94074779 377.00828341 196.47373015 376.25 191.25 C371.2462189 177.23534479 358.02246745 163.41029467 345.5234375 155.53125 C342.99466271 153.93412908 341.10241558 152.60168124 339.25 150.25 C338.83007308 147.20676492 339.23141313 144.65960198 339.7109375 141.625 C340.6108691 135.60169544 340.35886084 129.51159116 340.3125 123.4375 C340.30790771 122.24922607 340.30331543 121.06095215 340.29858398 119.83666992 C340.28713236 116.97438912 340.27083133 114.11222525 340.25 111.25 C353.89640155 119.68440529 367.03459471 128.83715452 379.25 139.25 C380.34574764 140.16088636 381.4421373 141.0710008 382.5390625 141.98046875 C399.8695746 156.45368998 414.9014159 171.98203576 425.25 192.25 C425.70632813 193.13945312 426.16265625 194.02890625 426.6328125 194.9453125 C430.50615993 203.80254753 431.11866359 215.19346188 428.26171875 224.453125 C427.08435077 226.8880532 425.80755429 229.04308634 424.25 231.25 C423.693125 232.136875 423.13625 233.02375 422.5625 233.9375 C403.10803018 253.39196982 372.31651927 254.46861654 346.5 254.5 C345.62359863 254.50233643 344.74719727 254.50467285 343.84423828 254.50708008 C329.47572165 254.52145644 315.450858 253.62931276 301.1875 251.90625 C292.51666462 250.43485173 292.51666462 250.43485173 284.58984375 253.0859375 C283.79707031 253.92382812 283.00429688 254.76171875 282.1875 255.625 C260.96243955 276.26934745 231.77143659 287.39720008 203.25 293.25 C202.05632812 293.49878906 200.86265625 293.74757813 199.6328125 294.00390625 C179.72063144 297.35383789 157.95626381 296.50809529 138.25 292.25 C137.46657227 292.08371094 136.68314453 291.91742188 135.87597656 291.74609375 C107.67215403 285.54745143 81.42283287 271.84276084 60.3203125 252.16796875 C58.61418346 250.58738505 56.8871701 249.12526362 55.0625 247.6875 C41.67574292 236.08564386 31.21053191 219.92490273 23.25 204.25 C22.93337402 203.63447266 22.61674805 203.01894531 22.29052734 202.38476562 C14.73760446 187.53922947 10.05655725 172.11950102 7.01171875 155.7734375 C6.87000244 155.01458252 6.72828613 154.25572754 6.58227539 153.47387695 C6.25 151.25 6.25 151.25 6.18139648 149.07885742 C6.0704684 146.19574484 5.86300313 143.91939985 3.86743164 141.74023438 C1.95505699 140.2884439 -0.00103162 139.04313984 -2.0625 137.8125 C-3.53132926 136.87194538 -4.99876612 135.92921297 -6.46484375 134.984375 C-7.19300293 134.52482422 -7.92116211 134.06527344 -8.67138672 133.59179688 C-36.11499935 115.87625835 -63.84589008 91.7426034 -78.75 62.25 C-79.20503906 61.36183594 -79.66007812 60.47367188 -80.12890625 59.55859375 C-84.00880939 50.70376254 -84.61856333 39.30621315 -81.76171875 30.046875 C-80.58435077 27.6119468 -79.30755429 25.45691366 -77.75 23.25 C-76.9146875 21.9196875 -76.9146875 21.9196875 -76.0625 20.5625 C-56.6095498 1.1095498 -25.81539899 0.02866936 0 0 Z " fill="#F3D45A" transform="translate(82.75,128.75)"/>
<path d="M0 0 C3.36908667 1.27313671 6.4089909 2.72408862 9.4921875 4.58203125 C10.77971924 5.35220581 10.77971924 5.35220581 12.09326172 6.13793945 C13.01123535 6.69054443 13.92920898 7.24314941 14.875 7.8125 C22.83298998 12.55440753 30.81990452 17.23725469 38.875 21.8125 C39.75140137 22.31434814 40.62780273 22.81619629 41.53076172 23.33325195 C54.32014483 30.56956743 67.62106695 36.8527903 80.90942383 43.10986328 C83.06743241 44.12732554 85.22218904 45.15146921 87.37695312 46.17578125 C96.46417521 50.47371052 105.62596954 54.36867989 115 58 C116.26000835 58.49575909 117.5196899 58.9923495 118.77905273 59.48974609 C154.98986525 73.76414082 191.9401007 86.61531376 230 95 C232.27141094 95.51830854 234.54227688 96.03901326 236.8125 96.5625 C237.72644531 96.77003906 238.64039063 96.97757812 239.58203125 97.19140625 C241.57752267 97.66348251 243.57030267 98.14794303 245.55517578 98.6628418 C253.39963084 100.68744837 261.27795196 102.25495499 269.25 103.6875 C270.48363281 103.91244141 271.71726562 104.13738281 272.98828125 104.36914062 C275.99157213 104.91625175 278.99545782 105.45981076 282 106 C259.94519176 133.17214818 220.4746052 147.23251443 186.8046875 151.58984375 C168.75139949 153.43466228 149.73619861 152.83240702 132 149 C131.21657227 148.83371094 130.43314453 148.66742188 129.62597656 148.49609375 C101.42215403 142.29745143 75.17283287 128.59276084 54.0703125 108.91796875 C52.36418346 107.33738505 50.6371701 105.87526362 48.8125 104.4375 C35.42574292 92.83564386 24.96053191 76.67490273 17 61 C16.68337402 60.38447266 16.36674805 59.76894531 16.04052734 59.13476562 C9.27897658 45.84469927 4.6115787 31.97710583 1.625 17.375 C1.45718018 16.55813721 1.28936035 15.74127441 1.11645508 14.8996582 C0.15493854 9.84923161 -0.15289976 5.13978432 0 0 Z " fill="#E57E25" transform="translate(89,272)"/>
<path d="M0 0 C13.52668155 0.45833317 26.74602966 1.65880871 40.125 3.6875 C41.0088739 3.81872253 41.8927478 3.94994507 42.80340576 4.08514404 C57.74095747 6.31228761 72.37510243 9.20081058 87 13 C88.42410656 13.35306883 89.84855201 13.70477546 91.2734375 14.0546875 C101.01650103 16.52619837 110.50021164 19.73546792 120 23 C120.3710333 51.569564 102.27230557 82.05467156 84 103 C83.41541016 103.71768555 82.83082031 104.43537109 82.22851562 105.17480469 C80 107 80 107 77.44482422 106.98266602 C76.01420654 106.62192993 76.01420654 106.62192993 74.5546875 106.25390625 C73.48541016 105.99593262 72.41613281 105.73795898 71.31445312 105.47216797 C70.17943359 105.17197754 69.04441406 104.87178711 67.875 104.5625 C66.71677734 104.27262207 65.55855469 103.98274414 64.36523438 103.68408203 C62.01767584 103.09134624 59.67288362 102.48754153 57.33105469 101.87255859 C54.34414734 101.09014824 51.35118665 100.34501596 48.3515625 99.61328125 C46.73376128 99.20293288 45.11652549 98.79034553 43.5 98.375 C42.38987549 98.10345093 42.38987549 98.10345093 41.25732422 97.82641602 C36.32198637 96.48766868 36.32198637 96.48766868 34.79296875 94.171875 C34.53128906 93.45515625 34.26960938 92.7384375 34 92 C32.63851123 90.26417115 31.23826496 88.55843332 29.8125 86.875 C8.74029226 61.35945133 -0.86037134 32.92472582 0 0 Z " fill="#F19B1F" transform="translate(265,226)"/>
<path d="M0 0 C11.58563735 5.15415201 16.23939924 14.2548263 22 25 C22.37785645 25.69367676 22.75571289 26.38735352 23.14501953 27.10205078 C39.09267014 56.63446947 43.5254492 84.73502382 43 118 C37.98409477 117.40762095 33.50881635 116.33207265 28.6875 114.75 C27.26233066 114.29495408 25.8365247 113.84189819 24.41015625 113.390625 C23.67941895 113.15923828 22.94868164 112.92785156 22.19580078 112.68945312 C-6.21412214 103.76910375 -35.6562554 99.72502722 -65.22558594 97.00146484 C-66.46469727 96.88496582 -67.70380859 96.7684668 -68.98046875 96.6484375 C-70.64952271 96.49640869 -70.64952271 96.49640869 -72.35229492 96.34130859 C-75 96 -75 96 -77 95 C-73.41488159 65.26824219 -51.7993228 37.26502255 -29 19 C-19.77304273 11.96123566 -10.18301431 5.57220822 0 0 Z " fill="#F19B1F" transform="translate(345,113)"/>
<path d="M0 0 C3.36908667 1.27313671 6.4089909 2.72408862 9.4921875 4.58203125 C10.77971924 5.35220581 10.77971924 5.35220581 12.09326172 6.13793945 C13.01123535 6.69054443 13.92920898 7.24314941 14.875 7.8125 C22.83298998 12.55440753 30.81990452 17.23725469 38.875 21.8125 C39.75140137 22.31434814 40.62780273 22.81619629 41.53076172 23.33325195 C54.39106038 30.60969191 67.76881691 36.92439144 81.12915039 43.21972656 C83.33125642 44.25885073 85.52985928 45.30516269 87.72851562 46.3515625 C95.36508334 49.96508642 102.96586674 53.33956247 111 56 C111.06852173 57.00317261 111.06852173 57.00317261 111.13842773 58.02661133 C112.33394758 74.58447737 116.39603277 90.84076077 120 107 C120.38421919 108.72914343 120.76834162 110.45830836 121.15234375 112.1875 C121.57193359 114.0746875 121.57193359 114.0746875 122 116 C91.72189552 115.56348735 62.87966752 104.60228915 37.890625 87.8828125 C35.22623843 86.0054934 35.22623843 86.0054934 32.9296875 85.19921875 C29.6428299 83.15657648 27.9188504 79.91081708 25.875 76.6875 C25.39780518 75.93911865 24.92061035 75.1907373 24.42895508 74.41967773 C11.07295033 52.93239803 -0.76735611 25.79497083 0 0 Z " fill="#F19B1F" transform="translate(89,272)"/>
<path d="M0 0 C3.45497096 2.78667366 4.53218202 4.86894627 5.3125 9.1875 C13.07083411 46.15368017 28.16174274 80.31985403 53 109 C54.07507813 110.24136719 54.07507813 110.24136719 55.171875 111.5078125 C90.5805123 151.56226391 140.56827567 177.31819423 194 182 C198.71766534 182.27212669 203.43752765 182.47333743 208.1628418 182.53442383 C212.90726664 182.6473089 216.17181612 182.87855776 220 186 C222.44521115 189.66781672 222.72237759 192.73453233 222 197 C220.12984906 199.43119623 218.71861655 200.64069173 216 202 C163.77650585 205.26005005 107.73445901 184.53347526 68 151 C67.48115234 150.56993652 66.96230469 150.13987305 66.42773438 149.69677734 C53.78075818 139.21233197 41.97960059 128.10235641 32 115 C31.2894043 114.07936768 31.2894043 114.07936768 30.56445312 113.14013672 C8.99959967 85.02832428 -16.02798958 41.94467966 -14 5 C-10.1746717 -1.06776214 -6.82318725 -1.55616551 0 0 Z " fill="#D25526" transform="translate(43,284)"/>
<path d="M0 0 C1.69625238 0.73645267 3.38745981 1.48451076 5.07739258 2.23535156 C1.97371805 5.62738705 -1.46072389 7.93701861 -5.36010742 10.29785156 C-12.81701587 14.96843682 -19.43751018 20.30230656 -25.92260742 26.23535156 C-26.43033691 26.69780273 -26.93806641 27.16025391 -27.46118164 27.63671875 C-50.48889782 48.89648627 -63.77232576 76.35098546 -71.92260742 106.23535156 C-83.14260742 106.23535156 -94.36260742 106.23535156 -105.92260742 106.23535156 C-103.17861468 67.81945323 -95.41435661 19.40955799 -67.25463867 -9.47558594 C-53.00939482 -21.72446545 -15.02527685 -6.4007187 0 0 Z " fill="#F19B1F" transform="translate(321.922607421875,100.7646484375)"/>
<path d="M0 0 C23.75669205 8.07670491 46.29908726 19.41877974 65.875 35.25 C66.69355469 35.8790625 67.51210938 36.508125 68.35546875 37.15625 C75.58354607 42.76404289 82.24390919 48.95959317 88.875 55.25 C89.63039063 55.96285156 90.38578125 56.67570312 91.1640625 57.41015625 C96.55041673 62.63556364 101.22628329 68.36779296 105.875 74.25 C106.28540527 74.76224121 106.69581055 75.27448242 107.11865234 75.80224609 C112.90875982 83.03709351 118.16306876 90.40832833 122.82128906 98.44091797 C123.54877952 99.68992267 124.28572903 100.93344894 125.03027344 102.17236328 C136.61965346 121.48021436 154.52889741 153.75458992 150.875 177.25 C148.88272296 180.30067422 147.53817126 181.84426669 143.9375 182.72265625 C140.14263045 183.00295911 138.53749125 182.71506682 135.33203125 180.46484375 C131.47777641 176.31478699 130.80999255 170.53461059 129.5625 165.1875 C122.88086567 138.76641928 111.26934745 114.0850077 94.875 92.25 C94.18921875 91.33347656 93.5034375 90.41695313 92.796875 89.47265625 C87.54897012 82.72077863 81.74415489 76.45982243 75.875 70.25 C75.07191406 69.39277344 74.26882813 68.53554687 73.44140625 67.65234375 C37.05953855 29.95618854 -16.51601002 9.10587334 -68.33862305 7.67871094 C-73.54873379 7.49806746 -77.88548535 7.25784072 -81.9375 3.625 C-83.66470078 0.17059844 -83.84808219 -2.96353734 -83.125 -6.75 C-70.01772788 -23.78945376 -16.94839089 -5.54188481 0 0 Z " fill="#D25526" transform="translate(330.125,37.75)"/>
<path d="M0 0 C0 0.33 0 0.66 0 1 C-0.91007812 1.20625 -1.82015625 1.4125 -2.7578125 1.625 C-8.89467106 4.22761953 -11.15675553 11.25860148 -14 17 C-14.33821777 17.67659668 -14.67643555 18.35319336 -15.02490234 19.05029297 C-28.24462055 45.93989723 -33.4084136 75.64250998 -38 105 C-38.12004395 105.76280273 -38.24008789 106.52560547 -38.36376953 107.31152344 C-38.92280454 110.87235147 -39.47076394 114.43462021 -40 118 C-43.18690233 118.33921452 -46.37460104 118.67029417 -49.5625 119 C-50.45775391 119.09539062 -51.35300781 119.19078125 -52.27539062 119.2890625 C-57.21490788 119.79567965 -62.03488014 120.10897382 -67 120 C-67.05945801 119.41323486 -67.11891602 118.82646973 -67.18017578 118.22192383 C-70.15006453 90.051736 -78.22155461 64.66766809 -94 41 C-87.20087103 34.40355509 -79.74839027 29.20040443 -71.78564453 24.14013672 C-70.26002109 23.16602385 -68.75119291 22.16569058 -67.24609375 21.16015625 C-48.61833179 9.3616483 -22.33930834 -0.53188829 0 0 Z " fill="#F19B1F" transform="translate(238,89)"/>
<path d="M0 0 C11.72623014 4.3430482 22.9141123 9.21779239 34 15 C35.33162723 15.67006801 36.66399204 16.33870963 38 17 C39.35113404 39.66902662 31.80477716 61.25602348 22.4375 81.5625 C21.97851318 82.58126221 21.51952637 83.60002441 21.04663086 84.6496582 C20.59682861 85.59156006 20.14702637 86.53346191 19.68359375 87.50390625 C19.28712646 88.34767822 18.89065918 89.1914502 18.48217773 90.06079102 C17 92 17 92 14.70166016 92.82080078 C11.70636254 93.01947677 9.06194112 92.79283211 6.08984375 92.36328125 C4.94378662 92.20005371 3.79772949 92.03682617 2.61694336 91.86865234 C1.40272705 91.68512207 0.18851074 91.5015918 -1.0625 91.3125 C-2.30572021 91.12896973 -3.54894043 90.94543945 -4.82983398 90.75634766 C-12.43561712 89.60850801 -20.01364338 88.35270589 -27.5625 86.875 C-28.38177979 86.71684814 -29.20105957 86.55869629 -30.04516602 86.39575195 C-33.56475437 85.67352319 -35.97631778 85.01578815 -39 83 C-38.47998413 82.34535767 -38.47998413 82.34535767 -37.94946289 81.67749023 C-18.8154815 57.46346683 -4.19385694 31.02677496 0 0 Z " fill="#E57E25" transform="translate(385,249)"/>
<path d="M0 0 C1.31453266 0.41020877 2.62648553 0.82868253 3.9375 1.25 C4.66839844 1.48203125 5.39929688 1.7140625 6.15234375 1.953125 C7.56193359 2.47132813 7.56193359 2.47132813 9 3 C9.72944824 3.17184814 10.45889648 3.34369629 11.21044922 3.52075195 C13.96182572 4.36025446 15.77363571 5.16035243 18 7 C19.9212786 11.41407433 20.54238036 15.9472221 21.25 20.6875 C21.59692203 22.68329611 21.95906114 24.67596134 22.32174683 26.66894531 C22.67448748 28.61583074 23.01458692 30.56499283 23.35449219 32.51416016 C24.6539038 39.53117946 26.74914962 46.24004475 29 53 C29.29132813 53.89412598 29.58265625 54.78825195 29.8828125 55.70947266 C34.42071874 69.56991698 39.38508748 82.51428757 47 95 C15.95906667 94.05936566 -16.06988683 83.76108953 -41 65 C-42.06089844 64.22011719 -43.12179688 63.44023437 -44.21484375 62.63671875 C-57.68075402 52.60811784 -68.84169535 41.33856416 -79 28 C-75.05229611 28 -72.94992288 29.85038903 -69.8125 32 C-45.58287454 48.00111421 -17.80674085 56.47044346 11 59 C10.75765625 58.28199219 10.5153125 57.56398438 10.265625 56.82421875 C7.09023207 47.01713983 4.96682934 37.10782807 3 27 C2.76917725 25.83670166 2.76917725 25.83670166 2.53369141 24.64990234 C0.90611617 16.38182012 -0.40330347 8.46937288 0 0 Z " fill="#E57D24" transform="translate(200,329)"/>
<path d="M0 0 C4.37498593 -0.02913072 8.74994674 -0.04684286 13.125 -0.0625 C14.3625 -0.07087891 15.6 -0.07925781 16.875 -0.08789062 C18.07382813 -0.09111328 19.27265625 -0.09433594 20.5078125 -0.09765625 C21.60754395 -0.10289307 22.70727539 -0.10812988 23.84033203 -0.11352539 C26.97618105 -0.0008558 29.92059383 0.41373624 33 1 C33.03963867 1.72888428 33.07927734 2.45776855 33.12011719 3.20874023 C33.9353365 17.50547997 34.90955907 31.24124414 39 45 C39.34804687 46.21945312 39.69609375 47.43890625 40.0546875 48.6953125 C44.30983151 62.51719409 50.87727504 75.45344637 58 88 C52.00798481 87.34810409 46.67927355 85.16495042 41.08984375 83.03515625 C40.04478165 82.64178574 38.99971954 82.24841522 37.92298889 81.84312439 C34.59252838 80.58805086 31.26502654 79.32532892 27.9375 78.0625 C25.69484718 77.2163045 23.45201054 76.370596 21.20898438 75.52539062 C17.09776968 73.97434781 12.98715012 72.42177794 8.87866211 70.86352539 C8.05514755 70.55121475 7.231633 70.23890411 6.38316345 69.91712952 C3.9130702 68.96654619 1.45524128 67.98824413 -1 67 C-1.02329804 59.74083736 -1.04100329 52.48168294 -1.05181217 45.22249031 C-1.05700313 41.85078728 -1.06403091 38.47911006 -1.07543945 35.10742188 C-1.08764134 31.22004529 -1.09325949 27.33270482 -1.09765625 23.4453125 C-1.10281754 22.25011993 -1.10797882 21.05492737 -1.11329651 19.82351685 C-1.11373845 13.15067607 -0.8315963 6.62295054 0 0 Z " fill="#F19B1F" transform="translate(214,224)"/>
<path d="M0 0 C4.09241891 1.36413964 4.94814022 3.9892277 6.8125 7.625 C7.1621582 8.29869629 7.51181641 8.97239258 7.87207031 9.66650391 C16.85184625 27.29392709 23 47.04038242 23 67 C22.37472412 67.05945801 21.74944824 67.11891602 21.10522461 67.18017578 C3.36079833 68.92079966 -13.89824015 71.88860694 -31.33984375 75.49682617 C-34 76 -34 76 -36 76 C-35.67 78.64 -35.34 81.28 -35 84 C-36.65 83.01 -38.3 82.02 -40 81 C-38.8295201 59.54120181 -27.66931848 30.03407584 -12 15 C-10.23073483 12.83776201 -8.55433547 10.6074697 -6.875 8.375 C-2.23986486 2.23986486 -2.23986486 2.23986486 0 0 Z " fill="#F19B1F" transform="translate(131,144)"/>
<path d="M0 0 C5.63164558 2.75591167 9.48110227 6.24000672 13.7890625 10.78125 C15.96314547 13.05359331 15.96314547 13.05359331 18.50390625 14.9609375 C21.17410763 17.14222876 23.16476888 19.43150174 25.3125 22.125 C26.09238281 23.10210937 26.87226563 24.07921875 27.67578125 25.0859375 C28.44277344 26.04757813 29.20976562 27.00921875 30 28 C30.67417969 28.79664063 31.34835937 29.59328125 32.04296875 30.4140625 C51.30390615 53.40416342 66.3746215 87.66171414 66.0625 117.9375 C66.05347656 119.08089844 66.04445313 120.22429687 66.03515625 121.40234375 C66.02355469 122.25957031 66.01195312 123.11679688 66 124 C59.96083652 122.11336922 54.23056646 119.59748399 48.42773438 117.09765625 C42.360221 114.50924422 36.2177646 112.20195619 30 110 C30.01047363 109.30664551 30.02094727 108.61329102 30.03173828 107.89892578 C30.5164433 70.78524636 23.87133604 37.53988601 2.79370117 6.33935547 C0 2.18733965 0 2.18733965 0 0 Z " fill="#E57D24" transform="translate(357,122)"/>
<path d="M0 0 C1.24265625 0.43828125 2.4853125 0.8765625 3.765625 1.328125 C45.78270421 16.7567475 45.78270421 16.7567475 89 28 C70.04737883 44.56488937 36.66687749 52.64594115 12 52 C8.80176073 42.50434271 6.12591325 32.92208423 3.75 23.1875 C3.49202637 22.15117432 3.23405273 21.11484863 2.96826172 20.04711914 C1.37088317 13.37224491 0.42279214 6.85007829 0 0 Z " fill="#F19B1F" transform="translate(218,336)"/>
<path d="M0 0 C3.36908667 1.27313671 6.4089909 2.72408862 9.4921875 4.58203125 C10.35086426 5.09564209 11.20954102 5.60925293 12.09423828 6.13842773 C13.01188965 6.69087158 13.92954102 7.24331543 14.875 7.8125 C22.91213986 12.60389778 30.98320523 17.32591562 39.125 21.9375 C40.08857422 22.48365967 41.05214844 23.02981934 42.04492188 23.5925293 C47.95937141 26.91966369 53.90065522 30.05303421 60.0859375 32.8515625 C62 34 62 34 63 37 C56.28920729 50.89087162 41.97516302 68.61419576 27 74 C23.40895244 72.75466017 22.14531968 71.08109011 20.4140625 67.7734375 C19.96111816 66.91484131 19.50817383 66.05624512 19.04150391 65.17163086 C18.57405762 64.24874268 18.10661133 63.32585449 17.625 62.375 C17.13821777 61.42439697 16.65143555 60.47379395 16.14990234 59.49438477 C6.98400664 41.28959992 -0.36123099 20.59016624 0 0 Z " fill="#F19B1F" transform="translate(89,272)"/>
<path d="M0 0 C1.31453266 0.41020877 2.62648553 0.82868253 3.9375 1.25 C4.66839844 1.48203125 5.39929688 1.7140625 6.15234375 1.953125 C7.56193359 2.47132813 7.56193359 2.47132813 9 3 C9.72944824 3.17184814 10.45889648 3.34369629 11.21044922 3.52075195 C13.96182572 4.36025446 15.77363571 5.16035243 18 7 C19.9212786 11.41407433 20.54238036 15.9472221 21.25 20.6875 C21.59692203 22.68329611 21.95906114 24.67596134 22.32174683 26.66894531 C22.67448748 28.61583074 23.01458692 30.56499283 23.35449219 32.51416016 C24.6539038 39.53117946 26.74914962 46.24004475 29 53 C29.29132813 53.89412598 29.58265625 54.78825195 29.8828125 55.70947266 C34.42071874 69.56991698 39.38508748 82.51428757 47 95 C44.66585761 94.88450858 42.33317081 94.75781807 40 94.625 C38.700625 94.55539062 37.40125 94.48578125 36.0625 94.4140625 C31.7883899 94.03447624 28.06353548 93.45706162 24 92 C22.00390625 89.47265625 22.00390625 89.47265625 20.5625 86.0625 C20.28937988 85.41990234 20.01625977 84.77730469 19.73486328 84.11523438 C18.76871387 81.76128457 17.87804846 79.38823836 17 77 C16.63729004 76.01628418 16.27458008 75.03256836 15.90087891 74.01904297 C10.30877935 58.57676889 6.04514669 43.12799914 3 27 C2.67883566 25.38142101 2.35724004 23.76292752 2.03515625 22.14453125 C0.59661837 14.70477994 -0.36227355 7.60774451 0 0 Z " fill="#D25726" transform="translate(200,329)"/>
<path d="M0 0 C-0.33 19.14 -0.66 38.28 -1 58 C-21.89285714 48.71428571 -21.89285714 48.71428571 -30 45 C-29.70222656 44.04996094 -29.40445313 43.09992188 -29.09765625 42.12109375 C-27.78020804 37.49551568 -27.09866973 32.81969683 -26.4375 28.0625 C-26.30819092 27.14895752 -26.17888184 26.23541504 -26.0456543 25.29418945 C-24.94446354 17.20822253 -24.33440118 9.15247016 -24 1 C-15.81109041 -0.36481826 -8.62284794 0 0 0 Z " fill="#F19B1F" transform="translate(196,225)"/>
<path d="M0 0 C6.30214697 0.33169195 10.85216936 3.67323988 16 7 C11.7781324 21.94231675 -3.15915474 35.95930877 -16 44 C-19.36328125 45.25 -19.36328125 45.25 -22 46 C-22.96125903 44.58531689 -23.91888325 43.1681636 -24.875 41.75 C-25.40867187 40.96109375 -25.94234375 40.1721875 -26.4921875 39.359375 C-30 33.87046632 -30 33.87046632 -30 30 C-28.12890625 28.67578125 -28.12890625 28.67578125 -25.5625 27.3125 C-14.55383573 20.94884175 -5.71876201 11.43752403 0 0 Z " fill="#D25726" transform="translate(136,300)"/>
<path d="M0 0 C0.66393443 26.00409836 0.66393443 26.00409836 -4 33 C-15.47845033 26.90596824 -26.82066518 20.65164519 -37.875 13.8125 C-38.78983154 13.24829346 -39.70466309 12.68408691 -40.6472168 12.1027832 C-45.40177896 9.13032243 -45.40177896 9.13032243 -47 8 C-47 7.67 -47 7.34 -47 7 C-36.39772285 4.73465445 -25.80810476 2.71301237 -15.0625 1.25 C-13.6700708 1.05893677 -13.6700708 1.05893677 -12.24951172 0.86401367 C-8.12431964 0.32206476 -4.16726734 -0.06069506 0 0 Z " fill="#F19B1F" transform="translate(154,228)"/>
</svg>
